<svg width="26" height="26" viewBox="0 0 26 26" fill="none" xmlns="http://www.w3.org/2000/svg">
<path d="M17.3809 12.9685L25.4477 4.8815C25.8048 4.52382 26.0006 4.04829 26 3.54273C25.9994 3.03823 25.8024 2.56321 25.4459 2.20584L23.7355 0.522874C23.3796 0.166112 22.9062 0 22.4025 0C22.4013 0 22.4 0 22.3988 0C21.8945 0 21.4217 0.16428 21.0664 0.520685L12.9997 8.59181L4.93289 0.529289C4.57702 0.172221 4.10358 0 3.60054 0C3.59933 0 3.59872 0 3.59745 0C3.0938 0 2.62036 0.165807 2.26383 0.523485L0.553517 2.22202C0.197642 2.57848 0.00122017 3.04505 1.4228e-06 3.5499C-0.000607952 4.05664 0.194544 4.5282 0.551029 4.88527L8.61844 12.9704L0.550419 21.0566C-0.183471 21.7939 -0.182253 22.9933 0.553517 23.7311L2.26388 25.4459C2.6327 25.8156 3.1166 26.0003 3.60054 26C4.08322 26 4.56595 25.816 4.93289 25.4478L12.9997 17.3606L21.0665 25.4482C21.8023 26.1848 22.9997 26.1836 23.7355 25.4457L25.4459 23.731C25.8018 23.3743 25.9982 22.8999 25.9988 22.3947C26 21.8879 25.8043 21.4121 25.4478 21.0554L17.3809 12.9685ZM24.5544 22.837L22.8439 24.5519C22.6001 24.7966 22.2018 24.7985 21.958 24.5541L13.4455 16.02C13.3272 15.9015 13.1672 15.8348 12.9997 15.8348C12.8322 15.8348 12.6722 15.9015 12.5539 16.02L4.04138 24.5541C3.92377 24.6716 3.74771 24.7569 3.59933 24.7361C3.43124 24.7358 3.27361 24.6703 3.1554 24.5519L1.44498 22.837C1.20057 22.5916 1.1993 22.1932 1.44254 21.9491L9.95571 13.4153C10.0739 13.2968 10.1404 13.1361 10.1404 12.9685C10.1404 12.8009 10.0739 12.6402 9.95571 12.5216L1.44254 3.98746C1.32493 3.86996 1.2609 3.71255 1.2609 3.54466C1.26151 3.37616 1.32676 3.21814 1.44498 3.09962L3.1554 1.3849C3.27483 1.26521 3.42017 1.17511 3.60054 1.19949C3.7668 1.19949 3.92316 1.2646 4.04138 1.38276L12.5539 9.91654C12.8002 10.1634 13.1992 10.1634 13.4455 9.91654L21.958 1.41447C22.075 1.29688 22.2314 1.26409 22.3988 1.26409C22.3988 1.26409 22.3995 1.26409 22.4001 1.26409C22.5682 1.26409 22.7258 1.2981 22.844 1.41661L24.5544 3.11546C24.6732 3.23458 24.7391 3.38466 24.7391 3.55255C24.7391 3.71983 24.6745 3.87297 24.5562 3.99148L16.0437 12.5235C15.7974 12.7704 15.7974 13.1694 16.0437 13.4162L24.5562 21.9499C24.6738 22.0675 24.7384 22.2246 24.7378 22.3925C24.7378 22.5607 24.6726 22.7185 24.5544 22.837Z" fill="#9B8888"/>
</svg>
