<svg width="30" height="24" viewBox="0 0 30 24" fill="none" xmlns="http://www.w3.org/2000/svg">
<path d="M10.7147 24C10.1432 24 9.60462 23.7719 9.19887 23.3581L0.62683 14.5855C-0.208944 13.7302 -0.208944 12.3398 0.62683 11.4844L2.64697 9.41702C3.48132 8.56169 4.84285 8.56169 5.67719 9.41702L10.7147 14.568L24.3228 0.641496C25.1572 -0.213832 26.5187 -0.213832 27.353 0.641496L29.3732 2.70891C30.2089 3.56423 30.2089 4.95469 29.3732 5.81002L12.2291 23.3552C11.8248 23.7705 11.2862 24 10.7147 24ZM4.1628 10.2343C3.97993 10.2343 3.79706 10.3045 3.65705 10.4478L1.6369 12.5152C1.35831 12.8003 1.35831 13.2638 1.6369 13.5489L10.2089 22.3215C10.479 22.5964 10.949 22.5964 11.219 22.3215L28.3631 4.77631C28.6417 4.4912 28.6417 4.02772 28.3631 3.74261L26.343 1.6752C26.0644 1.39009 25.6115 1.39009 25.3329 1.6752L11.219 16.1178C10.9404 16.4029 10.4875 16.4029 10.2089 16.1178L4.66712 10.4478C4.52854 10.306 4.34567 10.2343 4.1628 10.2343Z" fill="#241D1D"/>
</svg>
